<?xml version="1.0" encoding="UTF-8" standalone="no"?>
<!-- Created with Inkscape (http://www.inkscape.org/) -->

<svg
   width="107.03022mm"
   height="98.958214mm"
   viewBox="0 0 107.03022 98.958214"
   version="1.1"
   id="svg1"
   xml:space="preserve"
   xmlns:inkscape="http://www.inkscape.org/namespaces/inkscape"
   xmlns:sodipodi="http://sodipodi.sourceforge.net/DTD/sodipodi-0.dtd"
   xmlns="http://www.w3.org/2000/svg"
   xmlns:svg="http://www.w3.org/2000/svg"><sodipodi:namedview
     id="namedview1"
     pagecolor="#ffffff"
     bordercolor="#000000"
     borderopacity="0.25"
     inkscape:showpageshadow="2"
     inkscape:pageopacity="0.0"
     inkscape:pagecheckerboard="0"
     inkscape:deskcolor="#d1d1d1"
     inkscape:document-units="mm" /><defs
     id="defs1" /><g
     inkscape:label="Layer 1"
     inkscape:groupmode="layer"
     id="layer1"
     transform="translate(-54.616567,-107.36142)"><g
       id="g1"
       transform="matrix(1.1405985,0,0,1.1405985,51.099987,102.80757)"
       inkscape:export-filename="header-logo.svg"
       inkscape:export-xdpi="96"
       inkscape:export-ydpi="96"><path
         d="m 47.751,19.473 v 3.8516 c -13.836,1.1486 -24.75,12.774 -24.75,26.9 0,4.1111 0.9267,8.0084 2.5781,11.5 l -3.334,1.9258 2.25,3.8965 3.3418,-1.9297 c 4.8829,7.008 12.996,11.607 22.164,11.607 9.1676,0 17.279,-4.5995 22.162,-11.607 l 3.3437,1.9297 2.25,-3.8965 -3.3359,-1.9258 c 1.6515,-3.4917 2.5801,-7.3888 2.5801,-11.5 0,-14.127 -10.914,-25.752 -24.75,-26.9 V 19.473 Z m 0,8.3633 v 9.6367 h -3.8125 l 6.0625,10.5 6.0625,-10.5 H 52.251 v -9.6367 c 11.391,1.1244 20.25,10.695 20.25,22.389 0,3.3002 -0.7115,6.428 -1.9805,9.248 l -8.3535,-4.8223 1.9062,-3.3008 -12.123,-0.002 6.0625,10.5 1.9043,-3.3008 8.3535,4.8223 c -4.08,5.6688 -10.731,9.3555 -18.27,9.3555 -7.5388,0 -14.19,-3.6867 -18.27,-9.3555 l 8.3536,-4.8223 1.9043,3.3008 6.0625,-10.5 h -12.123 l 1.9063,3.3027 -8.3536,4.8223 c -1.269,-2.82 -1.9804,-5.9478 -1.9804,-9.248 0,-11.693 8.859,-21.264 20.25,-22.389 z"
         color="#000000"
         color-rendering="auto"
         dominant-baseline="auto"
         fill="url(#a)"
         image-rendering="auto"
         shape-rendering="auto"
         solid-color="#000000"
         stop-color="#000000"
         stroke="#1a1a1a"
         stroke-opacity="0.06"
         stroke-width="1.5"
         style="font-variant-ligatures:normal;font-variant-position:normal;font-variant-caps:normal;font-variant-numeric:normal;font-variant-alternates:normal;font-variant-east-asian:normal;font-feature-settings:normal;font-variation-settings:normal;text-indent:0;text-decoration-line:none;text-decoration-style:solid;text-decoration-color:#000000;text-transform:none;text-orientation:mixed;white-space:normal;shape-padding:0;shape-margin:0;inline-size:0;isolation:auto;mix-blend-mode:normal;fill:#ffffff;fill-opacity:1;stroke:none;paint-order:stroke markers fill"
         id="path16" /><path
         d="m 36.241,3.9926 -0.2969,1.1113 -2.1523,8.0312 c -14.728,6.4386 -24.32,20.966 -24.32,37.09 0,1.5096 0.1286,3.0139 0.2969,4.5137 l -6.6856,6.6855 13.76,23.832 9.1504,-2.4512 c 6.9584,5.1257 15.351,7.9473 24.008,7.9473 8.6569,5e-5 17.051,-2.8209 24.01,-7.9473 l 9.1485,2.4512 13.76,-23.832 -6.6855,-6.6855 c 0.1683,-1.5 0.2969,-3.0039 0.2969,-4.5137 0,-16.124 -9.5925,-30.651 -24.32,-37.09 L 63.7621,3.9925 Z m 2.3008,3 h 22.916 l 2.2188,8.2754 0.6836,0.2832 c 14.029,5.8097 23.17,19.489 23.17,34.674 0,1.6394 -0.1081,3.277 -0.3223,4.9023 l -0.096,0.73242 6.0586,6.0586 -11.459,19.844 -8.2754,-2.2168 -0.5859,0.45117 c -6.5549,5.0307 -14.587,7.7559 -22.85,7.7559 -8.2629,5e-5 -16.295,-2.7252 -22.85,-7.7559 l -0.586,-0.45117 -8.2754,2.2168 -11.459,-19.844 6.0586,-6.0586 -0.096,-0.73438 c -0.2141,-1.6252 -0.3222,-3.2612 -0.3222,-4.9004 10e-5,-15.185 9.1423,-28.864 23.172,-34.674 l 0.6836,-0.2832 z"
         color="#000000"
         color-rendering="auto"
         dominant-baseline="auto"
         fill="url(#a)"
         image-rendering="auto"
         shape-rendering="auto"
         solid-color="#000000"
         stop-color="#000000"
         style="font-variant-ligatures:normal;font-variant-position:normal;font-variant-caps:normal;font-variant-numeric:normal;font-variant-alternates:normal;font-variant-east-asian:normal;font-feature-settings:normal;font-variation-settings:normal;text-indent:0;text-decoration-line:none;text-decoration-style:solid;text-decoration-color:#000000;text-transform:none;text-orientation:mixed;white-space:normal;shape-padding:0;shape-margin:0;inline-size:0;isolation:auto;mix-blend-mode:normal;fill:#ffffff;fill-opacity:1"
         id="path17" /></g></g></svg>
