<?xml version="1.0" encoding="UTF-8" standalone="no"?>
<!-- Created with Inkscape (http://www.inkscape.org/) -->

<svg
   width="107.03022mm"
   height="98.958214mm"
   viewBox="0 0 107.03022 98.958214"
   version="1.1"
   id="svg1"
   xml:space="preserve"
   sodipodi:docname="header-icon.svg"
   inkscape:version="1.3 (0e150ed6c4, 2023-07-21)"
   xmlns:inkscape="http://www.inkscape.org/namespaces/inkscape"
   xmlns:sodipodi="http://sodipodi.sourceforge.net/DTD/sodipodi-0.dtd"
   xmlns="http://www.w3.org/2000/svg"
   xmlns:svg="http://www.w3.org/2000/svg"><sodipodi:namedview
     id="namedview1"
     pagecolor="#ffffff"
     bordercolor="#000000"
     borderopacity="0.25"
     inkscape:showpageshadow="2"
     inkscape:pageopacity="0.0"
     inkscape:pagecheckerboard="0"
     inkscape:deskcolor="#d1d1d1"
     inkscape:document-units="mm"
     showguides="false"
     inkscape:zoom="2"
     inkscape:cx="303.25"
     inkscape:cy="250.25"
     inkscape:window-width="3440"
     inkscape:window-height="1369"
     inkscape:window-x="-8"
     inkscape:window-y="-8"
     inkscape:window-maximized="1"
     inkscape:current-layer="layer2" /><defs
     id="defs1" /><g
     inkscape:groupmode="layer"
     id="layer2"
     inkscape:label="Layer 2"
     style="display:inline;fill:#000000;fill-opacity:1" /><g
     inkscape:label="Layer 1"
     inkscape:groupmode="layer"
     id="layer1"
     transform="translate(-54.616567,-107.36142)"
     style="display:inline;fill:#ffffff"><g
       id="g1"
       transform="matrix(1.1405985,0,0,1.1405985,51.099987,102.80757)"
       inkscape:export-filename="header-logo.svg"
       inkscape:export-xdpi="96"
       inkscape:export-ydpi="96"
       style="fill:#ffffff"><path
         d="m 47.392012,14.865594 v 4.466163 C 31.348333,20.663629 18.69289,34.143984 18.69289,50.523936 c 0,4.767069 1.074565,9.286224 2.989462,13.334946 l -3.865974,2.233081 2.609011,4.518228 3.87502,-2.237604 c 5.662017,8.126201 15.069648,13.459019 25.700499,13.459019 10.630387,0 20.036047,-5.333399 25.698181,-13.459019 l 3.877222,2.237604 2.609011,-4.518228 -3.868178,-2.233081 c 1.915015,-4.048838 2.991782,-8.567761 2.991782,-13.334946 0,-16.381112 -12.655443,-29.861004 -28.699122,-31.192179 v -4.466163 z m 0,9.697752 V 35.737684 H 42.971189 L 50.001024,47.913069 57.03086,35.737684 H 52.610035 V 24.563346 c 13.208554,1.30381 23.481101,12.401501 23.481101,25.961402 0,3.826781 -0.825027,7.453654 -2.29651,10.723615 l -9.686389,-5.591748 2.210355,-3.827478 -14.057352,-0.0023 7.029835,12.175385 2.208151,-3.827476 9.686389,5.591748 c -4.731007,6.573316 -12.443244,10.848269 -21.185171,10.848269 -8.741695,0 -16.454164,-4.274953 -21.18517,-10.848269 l 9.686504,-5.591748 2.208152,3.827476 7.029835,-12.175385 H 33.682412 l 2.21047,3.829681 -9.686504,5.591749 c -1.471482,-3.269961 -2.296393,-6.896835 -2.296393,-10.723616 0,-13.558741 10.272546,-24.656896 23.4811,-25.961402 z"
         color="#000000"
         color-rendering="auto"
         dominant-baseline="auto"
         fill="url(#a)"
         image-rendering="auto"
         shape-rendering="auto"
         solid-color="#000000"
         stop-color="#000000"
         stroke="#1a1a1a"
         stroke-opacity="0.06"
         stroke-width="1.73934"
         style="font-variant-ligatures:normal;font-variant-position:normal;font-variant-caps:normal;font-variant-numeric:normal;font-variant-alternates:normal;font-variant-east-asian:normal;font-feature-settings:normal;font-variation-settings:normal;text-indent:0;text-decoration-line:none;text-decoration-style:solid;text-decoration-color:#000000;text-transform:none;text-orientation:mixed;white-space:normal;shape-padding:0;shape-margin:0;inline-size:0;isolation:auto;mix-blend-mode:normal;fill:#ffffff;fill-opacity:1;stroke:none;paint-order:stroke markers fill"
         id="path16" /><path
         d="m 36.241,3.9926 -0.2969,1.1113 -2.1523,8.0312 c -14.728,6.4386 -24.32,20.966 -24.32,37.09 0,1.5096 0.1286,3.0139 0.2969,4.5137 l -6.6856,6.6855 13.76,23.832 9.1504,-2.4512 c 6.9584,5.1257 15.351,7.9473 24.008,7.9473 8.6569,5e-5 17.051,-2.8209 24.01,-7.9473 l 9.1485,2.4512 13.76,-23.832 -6.6855,-6.6855 c 0.1683,-1.5 0.2969,-3.0039 0.2969,-4.5137 0,-16.124 -9.5925,-30.651 -24.32,-37.09 L 63.7621,3.9925 Z M 22.631205,51.607877 C 22.227707,38.219876 36.582815,22.326127 49.975927,22.165075 63.255458,22.005389 77.860596,37.417515 77.782901,50.697779 77.707343,63.612778 63.332178,77.969135 50.417927,78.127406 37.615298,78.284309 23.016914,64.405656 22.631205,51.607877 Z"
         color="#000000"
         color-rendering="auto"
         dominant-baseline="auto"
         fill="url(#a)"
         image-rendering="auto"
         shape-rendering="auto"
         solid-color="#000000"
         stop-color="#000000"
         style="font-variant-ligatures:normal;font-variant-position:normal;font-variant-caps:normal;font-variant-numeric:normal;font-variant-alternates:normal;font-variant-east-asian:normal;font-feature-settings:normal;font-variation-settings:normal;text-indent:0;text-decoration-line:none;text-decoration-style:solid;text-decoration-color:#000000;text-transform:none;text-orientation:mixed;white-space:normal;shape-padding:0;shape-margin:0;inline-size:0;isolation:auto;mix-blend-mode:normal;fill:#ffffff;fill-opacity:1"
         id="path17"
         sodipodi:nodetypes="cccscccccccccscccaaaaa" /></g></g></svg>
